<?xml version="1.0" encoding="UTF-8"?>
<svg id="Capa_1" xmlns="http://www.w3.org/2000/svg" viewBox="0 0 214.49 249.8">
  <defs>
    <style>
      .cls-1 {
        fill: #52b26e;
      }

      .cls-2 {
        fill: #3797d3;
      }

      .cls-3 {
        fill: #e42320;
      }

      .cls-4 {
        fill: #1d1d1b;
        font-family: Ebrima-Bold, Ebrima;
        font-size: 36px;
        font-weight: 700;
      }
    </style>
  </defs>
  <g>
    <path class="cls-2" d="M28.72,240.96h-5.61c0-6.03,0-9.05,0-15.08,0-1.63.07-3.43.21-5.4h-.14c-.29,1.55-.56,2.66-.79,3.34-2.36,6.86-3.54,10.28-5.91,17.14-1.86,0-2.78,0-4.64,0-2.4-6.79-3.61-10.18-6.01-16.96-.16-.46-.43-1.63-.79-3.52h-.16c.15,2.48.23,4.66.23,6.54,0,5.58,0,8.36,0,13.94-2.05,0-3.07,0-5.12,0C0,230.88,0,225.84,0,215.75h8.31c2.06,5.98,3.09,8.96,5.15,14.94.41,1.2.71,2.4.9,3.6h.11c.32-1.39.65-2.61,1-3.64,2.06-5.96,3.09-8.94,5.15-14.91h8.1c0,10.08,0,15.12,0,25.21Z"/>
    <path class="cls-2" d="M49.57,240.96h-15.12c0-10.08,0-15.12,0-25.21h14.54c0,1.85,0,2.77,0,4.62h-8.86c0,2.24,0,3.36,0,5.61h8.24v4.61h-8.24c0,2.31,0,3.46,0,5.77,3.78,0,5.66,0,9.44,0,0,1.84,0,2.76,0,4.61Z"/>
    <path class="cls-2" d="M53.61,240.96c0-10.08,0-15.12,0-25.21h8.93c8.95,0,13.43,4.1,13.43,12.29,0,3.93-1.22,7.06-3.67,9.4-2.44,2.34-5.7,3.52-9.76,3.52-3.57,0-5.36,0-8.93,0ZM59.29,220.38c0,6.39,0,9.59,0,15.98h2.81c2.46,0,4.39-.74,5.79-2.21,1.4-1.48,2.1-3.49,2.1-6.03,0-2.4-.69-4.29-2.08-5.67-1.39-1.38-3.34-2.07-5.84-2.07h-2.78Z"/>
    <path class="cls-2" d="M85.83,232.28c0,3.47,0,5.21,0,8.68h-5.68c0-10.08,0-15.12,0-25.21h8.89c6.35,0,9.53,2.68,9.53,8.03,0,2.53-.91,4.58-2.73,6.14-1.82,1.56-4.26,2.35-7.3,2.35-1.08,0-1.62,0-2.71,0ZM85.83,220.11c0,3.14,0,4.71,0,7.86h2.23c3.02,0,4.54-1.32,4.54-3.97,0-2.59-1.51-3.88-4.54-3.88h-2.23Z"/>
    <path class="cls-2" d="M112.92,241.4c-3.61,0-6.55-1.17-8.82-3.52s-3.41-5.41-3.41-9.18c0-3.98,1.15-7.21,3.46-9.67,2.31-2.46,5.37-3.69,9.18-3.69,3.6,0,6.51,1.18,8.73,3.53,2.22,2.36,3.33,5.46,3.33,9.32s-1.15,7.15-3.45,9.58-5.31,3.64-9.01,3.64ZM113.17,220.22c-1.99,0-3.57.75-4.75,2.24-1.17,1.49-1.76,3.47-1.76,5.93s.59,4.47,1.76,5.92c1.17,1.45,2.71,2.18,4.61,2.18s3.51-.71,4.66-2.12c1.15-1.41,1.72-3.37,1.72-5.88s-.56-4.65-1.67-6.1c-1.11-1.45-2.64-2.18-4.57-2.18Z"/>
    <path class="cls-2" d="M150.71,240.96h-6.52c-1.57-2.59-2.35-3.89-3.92-6.49-.29-.49-.57-.93-.84-1.32s-.54-.72-.82-.99-.56-.49-.86-.63-.62-.22-.98-.22h-1.53v9.65h-5.68v-25.21h9c6.12,0,9.18,2.29,9.18,6.86,0,.88-.13,1.69-.4,2.43s-.65,1.42-1.14,2.01-1.09,1.11-1.78,1.55-1.47.77-2.33,1.02v.07c.38.12.74.31,1.09.57.35.26.69.57,1.02.92s.64.73.94,1.13.57.8.82,1.19c1.91,2.98,2.86,4.47,4.76,7.45ZM135.25,220.01v7.01h2.46c1.22,0,2.2-.35,2.94-1.05.75-.71,1.12-1.6,1.12-2.65,0-2.2-1.32-3.3-3.96-3.3h-2.57Z"/>
    <path class="cls-2" d="M170.77,220.38h-7.19c0,8.23,0,12.35,0,20.58-2.28,0-3.42,0-5.7,0v-20.58h-7.15v-4.62h20.04c0,1.85,0,2.77,0,4.62Z"/>
    <path class="cls-2" d="M196.33,240.96h-6.19c-.72-2.24-1.08-3.36-1.79-5.61h-8.96c-.71,2.24-1.07,3.36-1.78,5.61h-6.15c3.67-10.08,5.51-15.12,9.18-25.21h6.73c3.59,10.08,5.38,15.12,8.96,25.21ZM187.05,230.99c-1.08-3.39-1.62-5.08-2.71-8.47-.2-.63-.34-1.39-.42-2.27h-.14c-.06.74-.21,1.47-.44,2.2-1.1,3.42-1.65,5.13-2.74,8.54h6.45Z"/>
    <path class="cls-2" d="M214.49,240.96c-6,0-9.01,0-15.01,0,0-10.08,0-15.12,0-25.21h5.68c0,8.24,0,12.36,0,20.6,3.73,0,5.6,0,9.33,0,0,1.84,0,2.76,0,4.61Z"/>
  </g>
  <text class="cls-4" transform="translate(57.43 238.31)"><tspan x="0" y="0"> </tspan></text>
  <path class="cls-2" d="M172.68,24.81c-4.09-3.31-45.51-35.7-96-21-31.77,9.25-49.35,31.96-55,40C16.91,50.7.75,75.78,3.68,110.81c2.71,32.43,20.12,53.47,26,60,6.23,6.91,17.65,17.67,35,25,27.6,11.65,52.62,7.18,62,5-6.9.65-40.59,3.11-70-21-35.65-29.22-34.98-72.85-34.81-78.06.12-4.45,2.2-52.3,42.81-78.94,31.93-20.95,74.64-20.23,108,2Z"/>
  <path class="cls-1" d="M67.68,28.81c-4.8,3.17-32.45,22.06-39,59-5.91,33.29,9.38,58.37,13,64,2.43,3.88,26.49,40.92,72,44,3.61.24,39.81,2.12,68-24,7.76-7.2,12.83-14.58,16-20,1.74-3.62.4-8-3-10-3.3-1.94-7.63-1.09-10,2-24.17,19.61-49.76,27.53-65,18-2.42-1.52-4.9-3.67-7.17-6.79,12.34,1.34,24.68,2.68,37.02,4.02,3.12-.36,5.61-2.54,6.15-5.23.69-3.43-1.87-7.26-6-8-15.04-6.34-28.14-10.38-38-13-26.11-6.93-35.1-5.34-40-4-9.19,2.51-15.87,7.37-20,11-3.74-6.55-15.56-29.11-11-59,4.42-28.97,21.46-46.68,27-52Z"/>
  <path class="cls-1" d="M202.68,144.81c3.49-7.87,9.39-24.04,8-45-1.27-19.19-8.06-33.42-12.24-40.79-4.24-7.59-14.36-23.22-33.76-34.21-28.97-16.41-57.73-10.67-65-9,8.4-.45,34.5-.75,59,17,5.63,4.08,20.69,15.28,29,36,13.19,32.89-1.23,63.4-4,69-.01,1.17.15,2.52,1,3,1.02.58,2.17-1.45,5.26-2.55,1.06-.38,2.79-.99,4.74-.45,2.03.56,3.23,2.06,3.56,2.5,1.86,2.48,1.22,5.14,2.44,5.5.37.11.98.03,2-1Z"/>
  <g>
    <path class="cls-3" d="M87.08,82.99c1.96-8.87,3.92-17.73,5.88-26.6.08-.13.55-.8,1.41-.94.8-.13,1.62.24,2.12.94,2.7,12.65,5.41,25.3,8.11,37.95l5.05-13.63,15.04.12c1.72-5.09,3.45-10.18,5.17-15.28.17-.92.9-1.62,1.76-1.72,1.01-.12,2.02.62,2.24,1.72,1.37,7.44,2.74,14.88,4.11,22.33l4.11-7.05c4.94.18,8.89.09,11.62-.02,1.4-.06,2.63-.13,3.77-.13,1.53-4.34,2.36-9.06,1.99-14.05-.16-2.15-.55-4.46-1.27-6.9-3.54-8.86-11.89-14.85-21.24-15.25-10.07-.43-19.47,5.69-23.3,15.25-4.68-10.56-15.45-16.64-25.9-15.07-12.84,1.94-18.25,14.42-18.52,15.07-.74,1.57-1.26,3.13-1.62,4.64-1.5,6.38-.15,12.77,2.5,18.62h16.97Z"/>
    <path class="cls-3" d="M144.68,84.81s0,0,0,0c0,0-.13.06-.25.13-1.39.78-3.21,4.68-3.75,5.87-1.13,2.42-2.6,5.29-3.32,5.42-.02,0-.04,0-.04,0-.22.03-1.04.13-1.61-.36-.6-.52-.58-1.42-.59-1.65-.02-1.61-1.5-8.86-3.88-19.62-1.14,3.45-2.27,6.89-3.41,10.34l-15.24-.24c-2.2,5.95-4.41,11.91-6.61,17.86-.45.87-1.38,1.37-2.31,1.24-1.05-.15-1.87-1.06-1.92-2.18-2.27-11.4-4.54-22.8-6.82-34.19l-4.47,19.15-18.43.23c5.99,10.59,15.46,18.83,18.04,21.02,7.73,7.32,15.46,14.64,23.19,21.97,7.76-7.38,15.52-14.77,23.28-22.15,3.27-2.57,13.55-11,19.18-22.85-3.05,0-10.91-.05-11.07,0Z"/>
  </g>
</svg>