<svg width="330" height="320" viewBox="0 0 330 320" fill="none" xmlns="http://www.w3.org/2000/svg">
<g clip-path="url(#clip0_222_11277)">
<path d="M269.25 39.0152C262.747 33.81 196.893 -17.1252 116.619 5.99145C66.1081 20.5376 38.1576 56.2504 29.1747 68.8938C21.5909 79.7287 -4.10195 119.169 0.556463 174.255C4.8651 225.253 32.5453 258.34 41.8939 268.609C51.799 279.475 69.9557 296.396 97.5405 307.923C141.422 326.243 181.201 319.214 196.114 315.786C185.144 316.808 131.58 320.676 84.8213 282.762C28.1413 236.812 29.2065 168.201 29.4768 160.008C29.6676 153.01 32.9746 77.763 97.5405 35.8701C148.306 2.92496 216.211 4.05721 269.25 39.0152Z" fill="#3797D3"/>
<path d="M102.31 45.3054C94.6786 50.2904 50.7179 79.9961 40.304 138.086C30.9077 190.437 55.2173 229.877 60.9727 238.73C64.8362 244.832 103.089 303.079 175.446 307.923C181.185 308.3 238.74 311.257 283.559 270.181C295.897 258.859 303.957 247.253 308.997 238.73C311.764 233.037 309.633 226.15 304.228 223.005C298.981 219.954 292.097 221.29 288.329 226.15C249.901 256.988 209.215 269.442 184.985 254.456C181.137 252.065 177.195 248.684 173.585 243.778C193.205 245.885 212.824 247.993 232.444 250.1C237.404 249.534 241.363 246.105 242.222 241.875C243.319 236.481 239.248 230.458 232.682 229.295C208.77 219.325 187.942 212.972 172.266 208.852C130.754 197.954 116.46 200.454 108.67 202.561C94.0586 206.508 83.438 214.151 76.8717 219.859C70.9255 209.559 52.1329 174.082 59.3828 127.078C66.4102 81.5215 93.5021 53.6714 102.31 45.3054Z" fill="#52B26E"/>
<path d="M316.947 227.722C322.496 215.346 331.876 189.918 329.666 156.957C327.647 126.78 316.852 104.402 310.206 92.8124C303.465 80.8767 287.375 56.2976 256.531 39.0152C210.471 13.2095 164.746 22.236 153.187 24.8622C166.542 24.1545 208.039 23.6827 246.991 51.5957C255.942 58.0117 279.886 75.6244 293.098 108.208C314.069 159.929 291.143 207.908 286.739 216.714C286.723 218.554 286.977 220.677 288.329 221.432C289.95 222.344 291.779 219.152 296.692 217.422C298.377 216.824 301.127 215.865 304.228 216.714C307.455 217.595 309.363 219.954 309.888 220.646C312.845 224.546 311.827 228.729 313.767 229.295C314.355 229.468 315.325 229.342 316.947 227.722Z" fill="#52B26E"/>
<path d="M133.138 130.507C136.255 116.558 139.371 102.625 142.487 88.6766C142.614 88.4721 143.361 87.4185 144.729 87.1984C146.001 86.9939 147.304 87.5758 148.099 88.6766C152.392 108.569 156.701 128.462 160.993 148.355L169.022 126.921L192.935 127.11C195.669 119.106 198.42 111.101 201.154 103.081C201.425 101.634 202.585 100.534 203.953 100.376C205.558 100.188 207.164 101.351 207.514 103.081C209.692 114.781 211.87 126.481 214.048 138.196L220.583 127.11C228.437 127.393 234.717 127.251 239.058 127.078C241.283 126.984 243.239 126.874 245.052 126.874C247.484 120.049 248.804 112.627 248.215 104.78C247.961 101.399 247.341 97.766 246.196 93.9289C240.568 79.9961 227.292 70.5764 212.427 69.9474C196.416 69.2712 181.471 78.8953 175.382 93.9289C167.941 77.3227 150.818 67.7615 134.204 70.2305C113.789 73.2812 105.188 92.9068 104.759 93.9289C103.582 96.3978 102.755 98.851 102.183 101.226C99.7981 111.259 101.944 121.307 106.158 130.507H133.138Z" fill="#E42320"/>
<path d="M224.733 133.369C224.733 133.369 224.526 133.463 224.335 133.573C222.125 134.8 219.232 140.933 218.373 142.804C216.576 146.61 214.239 151.123 213.095 151.327C213.063 151.327 213.031 151.327 213.031 151.327C212.681 151.375 211.377 151.532 210.471 150.761C209.517 149.943 209.549 148.528 209.533 148.166C209.501 145.635 207.148 134.234 203.364 117.313C201.552 122.738 199.755 128.148 197.943 133.573L173.713 133.196C170.215 142.552 166.701 151.925 163.203 161.282C162.488 162.65 161.009 163.436 159.531 163.232C157.861 162.996 156.558 161.565 156.478 159.803C152.869 141.876 149.26 123.949 145.635 106.038L138.528 136.152L109.226 136.514C118.75 153.167 133.806 166.125 137.908 169.569C150.198 181.08 162.488 192.591 174.778 204.118C187.116 192.513 199.453 180.891 211.791 169.286C216.99 165.244 233.334 151.988 242.285 133.353C237.436 133.353 224.939 133.274 224.685 133.353L224.733 133.369Z" fill="#E42320"/>
</g>
<defs>
<clipPath id="clip0_222_11277">
<rect width="330" height="320" fill="white"/>
</clipPath>
</defs>
</svg>
